<mxfile host="app.diagrams.net" modified="2023-11-06T03:39:42.928Z" agent="Mozilla/5.0 (Macintosh; Intel Mac OS X 10_15_7) AppleWebKit/537.36 (KHTML, like Gecko) Chrome/118.0.0.0 Safari/537.36" etag="kZS5C9AuNl81xoRDJk6D" version="22.0.8" type="github">
  <diagram name="第 1 页" id="ghW6HXjL1xLNtHcViidO">
    <mxGraphModel dx="2074" dy="1125" grid="1" gridSize="10" guides="1" tooltips="1" connect="1" arrows="1" fold="1" page="1" pageScale="1" pageWidth="827" pageHeight="1169" math="0" shadow="0">
      <root>
        <mxCell id="0" />
        <mxCell id="1" parent="0" />
        <mxCell id="w2ZEyz7rfCBRBZync50a-4" value="" style="html=1;shadow=0;dashed=0;shape=mxgraph.bootstrap.rrect;rSize=5;strokeColor=#6C767D;html=1;whiteSpace=wrap;fillColor=#ffffff;fontColor=#212529;verticalAlign=bottom;align=left;spacing=20;spacingBottom=0;fontSize=14;" vertex="1" parent="1">
          <mxGeometry x="20" y="330" width="840" height="810" as="geometry" />
        </mxCell>
        <mxCell id="w2ZEyz7rfCBRBZync50a-5" value="域名变更申请" style="html=1;shadow=0;dashed=0;shape=mxgraph.bootstrap.topButton;rSize=5;perimeter=none;whiteSpace=wrap;fillColor=#F7F7F7;strokeColor=#6C767D;fontColor=#6C767D;resizeWidth=1;fontSize=18;align=left;spacing=20;" vertex="1" parent="w2ZEyz7rfCBRBZync50a-4">
          <mxGeometry width="839.9999999999999" height="80" relative="1" as="geometry" />
        </mxCell>
        <mxCell id="w2ZEyz7rfCBRBZync50a-46" value="主域名" style="fillColor=none;strokeColor=none;align=left;fontSize=14;fontColor=#212529;" vertex="1" parent="w2ZEyz7rfCBRBZync50a-4">
          <mxGeometry x="40" y="110" width="60" height="30" as="geometry" />
        </mxCell>
        <mxCell id="w2ZEyz7rfCBRBZync50a-47" value="Example input placeholder" style="html=1;shadow=0;dashed=0;shape=mxgraph.bootstrap.rrect;rSize=5;fillColor=none;strokeColor=#999999;align=left;spacing=15;fontSize=14;fontColor=#6C767D;" vertex="1" parent="w2ZEyz7rfCBRBZync50a-4">
          <mxGeometry width="240" height="30" relative="1" as="geometry">
            <mxPoint x="100" y="110" as="offset" />
          </mxGeometry>
        </mxCell>
        <mxCell id="w2ZEyz7rfCBRBZync50a-48" value="子域名" style="fillColor=none;strokeColor=none;align=left;fontSize=14;fontColor=#212529;" vertex="1" parent="w2ZEyz7rfCBRBZync50a-4">
          <mxGeometry width="50" height="40" relative="1" as="geometry">
            <mxPoint x="40" y="190" as="offset" />
          </mxGeometry>
        </mxCell>
        <mxCell id="w2ZEyz7rfCBRBZync50a-49" value="Another input placeholder" style="html=1;shadow=0;dashed=0;shape=mxgraph.bootstrap.rrect;rSize=5;fillColor=none;strokeColor=#999999;align=left;spacing=15;fontSize=14;fontColor=#6C767D;" vertex="1" parent="w2ZEyz7rfCBRBZync50a-4">
          <mxGeometry width="230" height="40" relative="1" as="geometry">
            <mxPoint x="100" y="200" as="offset" />
          </mxGeometry>
        </mxCell>
        <mxCell id="w2ZEyz7rfCBRBZync50a-50" value="Another input placeholder" style="html=1;shadow=0;dashed=0;shape=mxgraph.bootstrap.rrect;rSize=5;fillColor=none;strokeColor=#999999;align=left;spacing=15;fontSize=14;fontColor=#6C767D;" vertex="1" parent="w2ZEyz7rfCBRBZync50a-4">
          <mxGeometry x="100" y="270" width="230" height="30" as="geometry" />
        </mxCell>
        <mxCell id="w2ZEyz7rfCBRBZync50a-51" value="TTL" style="fillColor=none;strokeColor=none;align=left;fontSize=14;fontColor=#212529;" vertex="1" parent="w2ZEyz7rfCBRBZync50a-4">
          <mxGeometry x="40" y="265" width="50" height="40" as="geometry" />
        </mxCell>
        <mxCell id="w2ZEyz7rfCBRBZync50a-52" value="" style="html=1;shadow=0;dashed=0;shape=mxgraph.bootstrap.rrect;rSize=5;fillColor=none;strokeColor=#999999;align=left;spacing=15;fontSize=14;fontColor=#6C767D;" vertex="1" parent="w2ZEyz7rfCBRBZync50a-4">
          <mxGeometry x="100" y="340" width="230" height="90" as="geometry" />
        </mxCell>
        <mxCell id="w2ZEyz7rfCBRBZync50a-53" value="备注" style="fillColor=none;strokeColor=none;align=left;fontSize=14;fontColor=#212529;" vertex="1" parent="w2ZEyz7rfCBRBZync50a-4">
          <mxGeometry x="40" y="335" width="50" height="40" as="geometry" />
        </mxCell>
        <mxCell id="w2ZEyz7rfCBRBZync50a-54" value="发起工单" style="html=1;shadow=0;dashed=0;shape=mxgraph.bootstrap.rrect;rSize=5;strokeColor=none;strokeWidth=1;fillColor=#0085FC;fontColor=#FFFFFF;whiteSpace=wrap;align=center;verticalAlign=middle;spacingLeft=0;fontStyle=0;fontSize=16;spacing=5;" vertex="1" parent="w2ZEyz7rfCBRBZync50a-4">
          <mxGeometry x="250" y="480" width="80" height="30" as="geometry" />
        </mxCell>
      </root>
    </mxGraphModel>
  </diagram>
</mxfile>
